{
	"asset":{
		"generator":"Khronos glTF Blender I/O v3.6.27",
		"version":"2.0"
	},
	"extensionsUsed":[
		"KHR_materials_unlit"
	],
	"scene":0,
	"scenes":[
		{
			"name":"Scene",
			"nodes":[
				0,
				1,
				2,
				3,
				4,
				5,
				6,
				7,
				8,
				9,
				10
			]
		}
	],
	"nodes":[
		{
			"extras":{
				"type":"cube"
			},
			"mesh":0,
			"name":"Cube1.001",
			"scale":[
				1,
				2,
				1
			],
			"translation":[
				1,
				1,
				1
			]
		},
		{
			"extras":{
				"type":"cube"
			},
			"mesh":1,
			"name":"Cube2.001",
			"scale":[
				4,
				4,
				3
			],
			"translation":[
				2,
				2,
				0
			]
		},
		{
			"extras":{
				"type":"cube"
			},
			"mesh":2,
			"name":"Cube0.001"
		},
		{
			"extras":{
				"entity":"hound",
				"type":"entity"
			},
			"mesh":3,
			"name":"hound.001",
			"rotation":[
				0.5,
				-0.5,
				-0.5,
				0.5
			],
			"scale":[
				0.25,
				0.25,
				0.25
			],
			"translation":[
				4,
				3.5,
				3.5
			]
		},
		{
			"extras":{
				"entity":"unit",
				"type":"entity"
			},
			"mesh":4,
			"name":"unit.001",
			"rotation":[
				0.5,
				-0.5,
				-0.5,
				0.5
			],
			"translation":[
				1.5,
				2.5,
				3
			]
		},
		{
			"extras":{
				"entity":"unit",
				"type":"entity"
			},
			"mesh":5,
			"name":"unit",
			"rotation":[
				0.5,
				-0.5,
				-0.5,
				0.5
			],
			"translation":[
				-3,
				2,
				1
			]
		},
		{
			"extras":{
				"entity":"hound",
				"type":"entity"
			},
			"mesh":6,
			"name":"hound",
			"rotation":[
				0.5,
				-0.5,
				-0.5,
				0.5
			],
			"scale":[
				0.25,
				0.25,
				0.25
			],
			"translation":[
				-3,
				4,
				1
			]
		},
		{
			"mesh":7,
			"name":"__ztest",
			"translation":[
				-2,
				-2,
				-2
			]
		},
		{
			"extras":{
				"type":"cube"
			},
			"mesh":8,
			"name":"Cube0",
			"translation":[
				2,
				-3,
				1
			]
		},
		{
			"extras":{
				"type":"cube"
			},
			"mesh":9,
			"name":"Cube1",
			"translation":[
				5,
				-3,
				1
			]
		},
		{
			"extras":{
				"type":"cube"
			},
			"mesh":10,
			"name":"Cube2",
			"translation":[
				8,
				-3,
				1
			]
		}
	],
	"materials":[
		{
			"doubleSided":true,
			"extensions":{
				"KHR_materials_unlit":{}
			},
			"name":"Cube1",
			"pbrMetallicRoughness":{
				"baseColorTexture":{
					"index":0,
					"texCoord":0
				},
				"metallicFactor":0,
				"roughnessFactor":0.9
			}
		},
		{
			"doubleSided":true,
			"extensions":{
				"KHR_materials_unlit":{}
			},
			"name":"Cube2",
			"pbrMetallicRoughness":{
				"baseColorTexture":{
					"index":1,
					"texCoord":0
				},
				"metallicFactor":0,
				"roughnessFactor":0.9
			}
		},
		{
			"doubleSided":true,
			"extensions":{
				"KHR_materials_unlit":{}
			},
			"name":"Cube0",
			"pbrMetallicRoughness":{
				"baseColorTexture":{
					"index":2,
					"texCoord":0
				},
				"metallicFactor":0,
				"roughnessFactor":0.9
			}
		},
		{
			"doubleSided":true,
			"name":"dog mat",
			"pbrMetallicRoughness":{
				"baseColorTexture":{
					"index":3
				},
				"metallicFactor":0,
				"roughnessFactor":0.5
			}
		},
		{
			"doubleSided":true,
			"name":"unit material",
			"pbrMetallicRoughness":{
				"baseColorTexture":{
					"index":4
				},
				"metallicFactor":0,
				"roughnessFactor":0.5
			}
		}
	],
	"meshes":[
		{
			"name":"Cube1.003",
			"primitives":[
				{
					"attributes":{
						"POSITION":0,
						"NORMAL":1,
						"TEXCOORD_0":2
					},
					"indices":3,
					"material":0
				}
			]
		},
		{
			"name":"Cube2.005",
			"primitives":[
				{
					"attributes":{
						"POSITION":4,
						"NORMAL":5,
						"TEXCOORD_0":6
					},
					"indices":3,
					"material":1
				}
			]
		},
		{
			"name":"Cube0.003",
			"primitives":[
				{
					"attributes":{
						"POSITION":7,
						"NORMAL":8,
						"TEXCOORD_0":9
					},
					"indices":3,
					"material":2
				}
			]
		},
		{
			"name":"hound.001",
			"primitives":[
				{
					"attributes":{
						"POSITION":10,
						"NORMAL":11,
						"TEXCOORD_0":12
					},
					"indices":13,
					"material":3
				}
			]
		},
		{
			"name":"unit.002",
			"primitives":[
				{
					"attributes":{
						"POSITION":14,
						"NORMAL":15,
						"TEXCOORD_0":16
					},
					"indices":17,
					"material":4
				}
			]
		},
		{
			"name":"unit",
			"primitives":[
				{
					"attributes":{
						"POSITION":18,
						"NORMAL":19,
						"TEXCOORD_0":20
					},
					"indices":17,
					"material":4
				}
			]
		},
		{
			"name":"hound",
			"primitives":[
				{
					"attributes":{
						"POSITION":21,
						"NORMAL":22,
						"TEXCOORD_0":23
					},
					"indices":13,
					"material":3
				}
			]
		},
		{
			"name":"__ztest",
			"primitives":[
				{
					"attributes":{
						"POSITION":24,
						"NORMAL":25,
						"TEXCOORD_0":26
					},
					"indices":3
				}
			]
		},
		{
			"name":"Cube0",
			"primitives":[
				{
					"attributes":{
						"POSITION":27,
						"NORMAL":28,
						"TEXCOORD_0":29
					},
					"indices":3,
					"material":2
				}
			]
		},
		{
			"name":"Cube1",
			"primitives":[
				{
					"attributes":{
						"POSITION":30,
						"NORMAL":31,
						"TEXCOORD_0":32
					},
					"indices":3,
					"material":0
				}
			]
		},
		{
			"name":"Cube2",
			"primitives":[
				{
					"attributes":{
						"POSITION":33,
						"NORMAL":34,
						"TEXCOORD_0":35
					},
					"indices":3,
					"material":1
				}
			]
		}
	],
	"textures":[
		{
			"sampler":0,
			"source":0
		},
		{
			"sampler":0,
			"source":1
		},
		{
			"sampler":0,
			"source":2
		},
		{
			"sampler":0,
			"source":3
		},
		{
			"sampler":0,
			"source":4
		}
	],
	"images":[
		{
			"bufferView":4,
			"mimeType":"image/png",
			"name":"1"
		},
		{
			"bufferView":8,
			"mimeType":"image/png",
			"name":"2"
		},
		{
			"bufferView":12,
			"mimeType":"image/png",
			"name":"0"
		},
		{
			"bufferView":17,
			"mimeType":"image/png",
			"name":"hound texture"
		},
		{
			"bufferView":22,
			"mimeType":"image/png",
			"name":"unit texture"
		}
	],
	"accessors":[
		{
			"bufferView":0,
			"componentType":5126,
			"count":24,
			"max":[
				1,
				1,
				1
			],
			"min":[
				0,
				0,
				0
			],
			"type":"VEC3"
		},
		{
			"bufferView":1,
			"componentType":5126,
			"count":24,
			"type":"VEC3"
		},
		{
			"bufferView":2,
			"componentType":5126,
			"count":24,
			"type":"VEC2"
		},
		{
			"bufferView":3,
			"componentType":5123,
			"count":36,
			"type":"SCALAR"
		},
		{
			"bufferView":5,
			"componentType":5126,
			"count":24,
			"max":[
				1,
				1,
				1
			],
			"min":[
				0,
				0,
				0
			],
			"type":"VEC3"
		},
		{
			"bufferView":6,
			"componentType":5126,
			"count":24,
			"type":"VEC3"
		},
		{
			"bufferView":7,
			"componentType":5126,
			"count":24,
			"type":"VEC2"
		},
		{
			"bufferView":9,
			"componentType":5126,
			"count":24,
			"max":[
				1,
				1,
				1
			],
			"min":[
				0,
				0,
				0
			],
			"type":"VEC3"
		},
		{
			"bufferView":10,
			"componentType":5126,
			"count":24,
			"type":"VEC3"
		},
		{
			"bufferView":11,
			"componentType":5126,
			"count":24,
			"type":"VEC2"
		},
		{
			"bufferView":13,
			"componentType":5126,
			"count":54,
			"max":[
				0.5808558464050293,
				0.6899759769439697,
				1.6563948392868042
			],
			"min":[
				-0.6091529726982117,
				-1.0019230842590332,
				-2.3449134826660156
			],
			"type":"VEC3"
		},
		{
			"bufferView":14,
			"componentType":5126,
			"count":54,
			"type":"VEC3"
		},
		{
			"bufferView":15,
			"componentType":5126,
			"count":54,
			"type":"VEC2"
		},
		{
			"bufferView":16,
			"componentType":5123,
			"count":90,
			"type":"SCALAR"
		},
		{
			"bufferView":18,
			"componentType":5126,
			"count":105,
			"max":[
				0.2662765383720398,
				0.6074147820472717,
				0.2393660992383957
			],
			"min":[
				-0.2726932764053345,
				-0.7244169116020203,
				-0.03246690705418587
			],
			"type":"VEC3"
		},
		{
			"bufferView":19,
			"componentType":5126,
			"count":105,
			"type":"VEC3"
		},
		{
			"bufferView":20,
			"componentType":5126,
			"count":105,
			"type":"VEC2"
		},
		{
			"bufferView":21,
			"componentType":5123,
			"count":204,
			"type":"SCALAR"
		},
		{
			"bufferView":23,
			"componentType":5126,
			"count":105,
			"max":[
				0.2662765383720398,
				0.6074147820472717,
				0.2393660992383957
			],
			"min":[
				-0.2726932764053345,
				-0.7244169116020203,
				-0.03246690705418587
			],
			"type":"VEC3"
		},
		{
			"bufferView":24,
			"componentType":5126,
			"count":105,
			"type":"VEC3"
		},
		{
			"bufferView":25,
			"componentType":5126,
			"count":105,
			"type":"VEC2"
		},
		{
			"bufferView":26,
			"componentType":5126,
			"count":54,
			"max":[
				0.5808558464050293,
				0.6899759769439697,
				1.6563948392868042
			],
			"min":[
				-0.6091529726982117,
				-1.0019230842590332,
				-2.3449134826660156
			],
			"type":"VEC3"
		},
		{
			"bufferView":27,
			"componentType":5126,
			"count":54,
			"type":"VEC3"
		},
		{
			"bufferView":28,
			"componentType":5126,
			"count":54,
			"type":"VEC2"
		},
		{
			"bufferView":29,
			"componentType":5126,
			"count":24,
			"max":[
				0.5,
				0.5,
				0.5
			],
			"min":[
				-0.5,
				-0.5,
				-0.5
			],
			"type":"VEC3"
		},
		{
			"bufferView":30,
			"componentType":5126,
			"count":24,
			"type":"VEC3"
		},
		{
			"bufferView":31,
			"componentType":5126,
			"count":24,
			"type":"VEC2"
		},
		{
			"bufferView":32,
			"componentType":5126,
			"count":24,
			"max":[
				1,
				1,
				1
			],
			"min":[
				0,
				0,
				0
			],
			"type":"VEC3"
		},
		{
			"bufferView":33,
			"componentType":5126,
			"count":24,
			"type":"VEC3"
		},
		{
			"bufferView":34,
			"componentType":5126,
			"count":24,
			"type":"VEC2"
		},
		{
			"bufferView":35,
			"componentType":5126,
			"count":24,
			"max":[
				1,
				1,
				1
			],
			"min":[
				0,
				0,
				0
			],
			"type":"VEC3"
		},
		{
			"bufferView":36,
			"componentType":5126,
			"count":24,
			"type":"VEC3"
		},
		{
			"bufferView":37,
			"componentType":5126,
			"count":24,
			"type":"VEC2"
		},
		{
			"bufferView":38,
			"componentType":5126,
			"count":24,
			"max":[
				1,
				1,
				1
			],
			"min":[
				0,
				0,
				0
			],
			"type":"VEC3"
		},
		{
			"bufferView":39,
			"componentType":5126,
			"count":24,
			"type":"VEC3"
		},
		{
			"bufferView":40,
			"componentType":5126,
			"count":24,
			"type":"VEC2"
		}
	],
	"bufferViews":[
		{
			"buffer":0,
			"byteLength":288,
			"byteOffset":0,
			"target":34962
		},
		{
			"buffer":0,
			"byteLength":288,
			"byteOffset":288,
			"target":34962
		},
		{
			"buffer":0,
			"byteLength":192,
			"byteOffset":576,
			"target":34962
		},
		{
			"buffer":0,
			"byteLength":72,
			"byteOffset":768,
			"target":34963
		},
		{
			"buffer":0,
			"byteLength":11744,
			"byteOffset":840
		},
		{
			"buffer":0,
			"byteLength":288,
			"byteOffset":12584,
			"target":34962
		},
		{
			"buffer":0,
			"byteLength":288,
			"byteOffset":12872,
			"target":34962
		},
		{
			"buffer":0,
			"byteLength":192,
			"byteOffset":13160,
			"target":34962
		},
		{
			"buffer":0,
			"byteLength":11639,
			"byteOffset":13352
		},
		{
			"buffer":0,
			"byteLength":288,
			"byteOffset":24992,
			"target":34962
		},
		{
			"buffer":0,
			"byteLength":288,
			"byteOffset":25280,
			"target":34962
		},
		{
			"buffer":0,
			"byteLength":192,
			"byteOffset":25568,
			"target":34962
		},
		{
			"buffer":0,
			"byteLength":13141,
			"byteOffset":25760
		},
		{
			"buffer":0,
			"byteLength":648,
			"byteOffset":38904,
			"target":34962
		},
		{
			"buffer":0,
			"byteLength":648,
			"byteOffset":39552,
			"target":34962
		},
		{
			"buffer":0,
			"byteLength":432,
			"byteOffset":40200,
			"target":34962
		},
		{
			"buffer":0,
			"byteLength":180,
			"byteOffset":40632,
			"target":34963
		},
		{
			"buffer":0,
			"byteLength":371,
			"byteOffset":40812
		},
		{
			"buffer":0,
			"byteLength":1260,
			"byteOffset":41184,
			"target":34962
		},
		{
			"buffer":0,
			"byteLength":1260,
			"byteOffset":42444,
			"target":34962
		},
		{
			"buffer":0,
			"byteLength":840,
			"byteOffset":43704,
			"target":34962
		},
		{
			"buffer":0,
			"byteLength":408,
			"byteOffset":44544,
			"target":34963
		},
		{
			"buffer":0,
			"byteLength":371,
			"byteOffset":44952
		},
		{
			"buffer":0,
			"byteLength":1260,
			"byteOffset":45324,
			"target":34962
		},
		{
			"buffer":0,
			"byteLength":1260,
			"byteOffset":46584,
			"target":34962
		},
		{
			"buffer":0,
			"byteLength":840,
			"byteOffset":47844,
			"target":34962
		},
		{
			"buffer":0,
			"byteLength":648,
			"byteOffset":48684,
			"target":34962
		},
		{
			"buffer":0,
			"byteLength":648,
			"byteOffset":49332,
			"target":34962
		},
		{
			"buffer":0,
			"byteLength":432,
			"byteOffset":49980,
			"target":34962
		},
		{
			"buffer":0,
			"byteLength":288,
			"byteOffset":50412,
			"target":34962
		},
		{
			"buffer":0,
			"byteLength":288,
			"byteOffset":50700,
			"target":34962
		},
		{
			"buffer":0,
			"byteLength":192,
			"byteOffset":50988,
			"target":34962
		},
		{
			"buffer":0,
			"byteLength":288,
			"byteOffset":51180,
			"target":34962
		},
		{
			"buffer":0,
			"byteLength":288,
			"byteOffset":51468,
			"target":34962
		},
		{
			"buffer":0,
			"byteLength":192,
			"byteOffset":51756,
			"target":34962
		},
		{
			"buffer":0,
			"byteLength":288,
			"byteOffset":51948,
			"target":34962
		},
		{
			"buffer":0,
			"byteLength":288,
			"byteOffset":52236,
			"target":34962
		},
		{
			"buffer":0,
			"byteLength":192,
			"byteOffset":52524,
			"target":34962
		},
		{
			"buffer":0,
			"byteLength":288,
			"byteOffset":52716,
			"target":34962
		},
		{
			"buffer":0,
			"byteLength":288,
			"byteOffset":53004,
			"target":34962
		},
		{
			"buffer":0,
			"byteLength":192,
			"byteOffset":53292,
			"target":34962
		}
	],
	"samplers":[
		{
			"magFilter":9728,
			"minFilter":9984
		}
	],
	"buffers":[
		{
			"byteLength":53484,
			"uri":"data:application/octet-stream;base64,"
		}
	]
}
