{
	"asset":{
		"generator":"Khronos glTF Blender I/O v3.6.27",
		"version":"2.0"
	},
	"extensionsUsed":[
		"KHR_materials_unlit"
	],
	"scene":0,
	"scenes":[
		{
			"name":"Scene",
			"nodes":[
				0,
				1,
				2,
				3,
				4,
				5,
				6,
				7,
				8,
				9,
				10,
				11,
				12,
				13,
				14,
				15
			]
		}
	],
	"nodes":[
		{
			"extras":{
				"type":"cube"
			},
			"mesh":0,
			"name":"Cube1.001",
			"scale":[
				1,
				2,
				1
			],
			"translation":[
				1,
				1,
				1
			]
		},
		{
			"extras":{
				"type":"cube"
			},
			"mesh":1,
			"name":"Cube2.001",
			"scale":[
				4,
				4,
				3
			],
			"translation":[
				2,
				2,
				0
			]
		},
		{
			"extras":{
				"type":"cube"
			},
			"mesh":2,
			"name":"Cube0.001"
		},
		{
			"extras":{
				"entity":"hound",
				"type":"entity"
			},
			"mesh":3,
			"name":"hound.001",
			"rotation":[
				0.5,
				-0.5,
				-0.5,
				0.5
			],
			"scale":[
				0.25,
				0.25,
				0.25
			],
			"translation":[
				4,
				3.5,
				3.5
			]
		},
		{
			"extras":{
				"entity":"unit",
				"type":"entity"
			},
			"mesh":4,
			"name":"unit.001",
			"rotation":[
				0.5,
				-0.5,
				-0.5,
				0.5
			],
			"translation":[
				1.5,
				2.5,
				3
			]
		},
		{
			"extras":{
				"type":"cube"
			},
			"mesh":5,
			"name":"Cube0.002",
			"scale":[
				4,
				10,
				2
			],
			"translation":[
				6,
				2,
				3
			]
		},
		{
			"extras":{
				"type":"entity",
				"entity":"player"
			},
			"mesh":6,
			"name":"player.001",
			"translation":[
				8,
				11,
				5.5
			]
		},
		{
			"extras":{
				"type":"entity",
				"entity":"light",
				"color":[
					255,
					255,
					255,
					255
				]
			},
			"mesh":7,
			"name":"light.001",
			"translation":[
				5,
				4.5,
				7
			]
		},
		{
			"extras":{
				"type":"entity",
				"entity":"light",
				"color":[
					0,
					128,
					255,
					1
				]
			},
			"mesh":8,
			"name":"light.003",
			"translation":[
				0.5,
				2,
				2
			]
		},
		{
			"extras":{
				"entity":"unit",
				"type":"entity"
			},
			"mesh":9,
			"name":"unit",
			"rotation":[
				0.5,
				-0.5,
				-0.5,
				0.5
			],
			"translation":[
				-3,
				5.5,
				1
			]
		},
		{
			"extras":{
				"entity":"hound",
				"type":"entity"
			},
			"mesh":10,
			"name":"hound",
			"rotation":[
				0.5,
				-0.5,
				-0.5,
				0.5
			],
			"scale":[
				0.25,
				0.25,
				0.25
			],
			"translation":[
				-3,
				7.5,
				1
			]
		},
		{
			"extras":{
				"type":"entity",
				"entity":"player"
			},
			"mesh":11,
			"name":"player",
			"translation":[
				-3,
				1.5,
				1
			]
		},
		{
			"extras":{
				"type":"entity",
				"entity":"light",
				"color":[
					255,
					255,
					255,
					255
				]
			},
			"mesh":12,
			"name":"light",
			"translation":[
				-3,
				3.5,
				1
			]
		},
		{
			"extras":{
				"type":"cube"
			},
			"mesh":13,
			"name":"Cube0",
			"translation":[
				2,
				-3,
				1
			]
		},
		{
			"extras":{
				"type":"cube"
			},
			"mesh":14,
			"name":"Cube1",
			"translation":[
				5,
				-3,
				1
			]
		},
		{
			"extras":{
				"type":"cube"
			},
			"mesh":15,
			"name":"Cube2",
			"translation":[
				8,
				-3,
				1
			]
		}
	],
	"materials":[
		{
			"doubleSided":true,
			"extensions":{
				"KHR_materials_unlit":{}
			},
			"name":"Cube1",
			"pbrMetallicRoughness":{
				"baseColorTexture":{
					"index":0,
					"texCoord":0
				},
				"metallicFactor":0,
				"roughnessFactor":0.9
			}
		},
		{
			"doubleSided":true,
			"extensions":{
				"KHR_materials_unlit":{}
			},
			"name":"Cube2",
			"pbrMetallicRoughness":{
				"baseColorTexture":{
					"index":1,
					"texCoord":0
				},
				"metallicFactor":0,
				"roughnessFactor":0.9
			}
		},
		{
			"doubleSided":true,
			"extensions":{
				"KHR_materials_unlit":{}
			},
			"name":"Cube0",
			"pbrMetallicRoughness":{
				"baseColorTexture":{
					"index":2,
					"texCoord":0
				},
				"metallicFactor":0,
				"roughnessFactor":0.9
			}
		},
		{
			"doubleSided":true,
			"name":"dog mat",
			"pbrMetallicRoughness":{
				"baseColorTexture":{
					"index":3
				},
				"metallicFactor":0,
				"roughnessFactor":0.5
			}
		},
		{
			"doubleSided":true,
			"name":"unit material",
			"pbrMetallicRoughness":{
				"baseColorTexture":{
					"index":4
				},
				"metallicFactor":0,
				"roughnessFactor":0.5
			}
		}
	],
	"meshes":[
		{
			"name":"Cube1.003",
			"primitives":[
				{
					"attributes":{
						"POSITION":0,
						"NORMAL":1,
						"TEXCOORD_0":2
					},
					"indices":3,
					"material":0
				}
			]
		},
		{
			"name":"Cube2.005",
			"primitives":[
				{
					"attributes":{
						"POSITION":4,
						"NORMAL":5,
						"TEXCOORD_0":6
					},
					"indices":3,
					"material":1
				}
			]
		},
		{
			"name":"Cube0.003",
			"primitives":[
				{
					"attributes":{
						"POSITION":7,
						"NORMAL":8,
						"TEXCOORD_0":9
					},
					"indices":3,
					"material":2
				}
			]
		},
		{
			"name":"hound.001",
			"primitives":[
				{
					"attributes":{
						"POSITION":10,
						"NORMAL":11,
						"TEXCOORD_0":12
					},
					"indices":13,
					"material":3
				}
			]
		},
		{
			"name":"unit.002",
			"primitives":[
				{
					"attributes":{
						"POSITION":14,
						"NORMAL":15,
						"TEXCOORD_0":16
					},
					"indices":17,
					"material":4
				}
			]
		},
		{
			"name":"Cube0.001",
			"primitives":[
				{
					"attributes":{
						"POSITION":18,
						"NORMAL":19,
						"TEXCOORD_0":20
					},
					"indices":3,
					"material":2
				}
			]
		},
		{
			"name":"Cylinder.001",
			"primitives":[
				{
					"attributes":{
						"POSITION":21,
						"NORMAL":22,
						"TEXCOORD_0":23
					},
					"indices":24
				}
			]
		},
		{
			"name":"Cone.001",
			"primitives":[
				{
					"attributes":{
						"POSITION":25,
						"NORMAL":26,
						"TEXCOORD_0":27
					},
					"indices":28
				}
			]
		},
		{
			"name":"Cone.004",
			"primitives":[
				{
					"attributes":{
						"POSITION":29,
						"NORMAL":30,
						"TEXCOORD_0":31
					},
					"indices":28
				}
			]
		},
		{
			"extras":{
				"targetNames":[
					"Key 1"
				]
			},
			"name":"unit",
			"primitives":[
				{
					"attributes":{
						"POSITION":32,
						"NORMAL":33,
						"TEXCOORD_0":34
					},
					"indices":17,
					"material":4,
					"targets":[
						{
							"POSITION":35,
							"NORMAL":36
						}
					]
				}
			],
			"weights":[
				1
			]
		},
		{
			"extras":{
				"targetNames":[
					"Key 1"
				]
			},
			"name":"hound",
			"primitives":[
				{
					"attributes":{
						"POSITION":37,
						"NORMAL":38,
						"TEXCOORD_0":39
					},
					"indices":13,
					"material":3,
					"targets":[
						{
							"POSITION":40,
							"NORMAL":41
						}
					]
				}
			],
			"weights":[
				0
			]
		},
		{
			"name":"Cylinder",
			"primitives":[
				{
					"attributes":{
						"POSITION":42,
						"NORMAL":43,
						"TEXCOORD_0":44
					},
					"indices":24
				}
			]
		},
		{
			"name":"Cone",
			"primitives":[
				{
					"attributes":{
						"POSITION":45,
						"NORMAL":46,
						"TEXCOORD_0":47
					},
					"indices":28
				}
			]
		},
		{
			"name":"Cube0",
			"primitives":[
				{
					"attributes":{
						"POSITION":48,
						"NORMAL":49,
						"TEXCOORD_0":50
					},
					"indices":3,
					"material":2
				}
			]
		},
		{
			"name":"Cube1",
			"primitives":[
				{
					"attributes":{
						"POSITION":51,
						"NORMAL":52,
						"TEXCOORD_0":53
					},
					"indices":3,
					"material":0
				}
			]
		},
		{
			"name":"Cube2.001",
			"primitives":[
				{
					"attributes":{
						"POSITION":54,
						"NORMAL":55,
						"TEXCOORD_0":56
					},
					"indices":3,
					"material":1
				}
			]
		}
	],
	"textures":[
		{
			"sampler":0,
			"source":0
		},
		{
			"sampler":0,
			"source":1
		},
		{
			"sampler":0,
			"source":2
		},
		{
			"sampler":0,
			"source":3
		},
		{
			"sampler":0,
			"source":4
		}
	],
	"images":[
		{
			"bufferView":4,
			"mimeType":"image/png",
			"name":"1"
		},
		{
			"bufferView":8,
			"mimeType":"image/png",
			"name":"2"
		},
		{
			"bufferView":12,
			"mimeType":"image/png",
			"name":"0"
		},
		{
			"bufferView":17,
			"mimeType":"image/png",
			"name":"hound texture"
		},
		{
			"bufferView":22,
			"mimeType":"image/png",
			"name":"unit texture"
		}
	],
	"accessors":[
		{
			"bufferView":0,
			"componentType":5126,
			"count":24,
			"max":[
				1,
				1,
				1
			],
			"min":[
				0,
				0,
				0
			],
			"type":"VEC3"
		},
		{
			"bufferView":1,
			"componentType":5126,
			"count":24,
			"type":"VEC3"
		},
		{
			"bufferView":2,
			"componentType":5126,
			"count":24,
			"type":"VEC2"
		},
		{
			"bufferView":3,
			"componentType":5123,
			"count":36,
			"type":"SCALAR"
		},
		{
			"bufferView":5,
			"componentType":5126,
			"count":24,
			"max":[
				1,
				1,
				1
			],
			"min":[
				0,
				0,
				0
			],
			"type":"VEC3"
		},
		{
			"bufferView":6,
			"componentType":5126,
			"count":24,
			"type":"VEC3"
		},
		{
			"bufferView":7,
			"componentType":5126,
			"count":24,
			"type":"VEC2"
		},
		{
			"bufferView":9,
			"componentType":5126,
			"count":24,
			"max":[
				1,
				1,
				1
			],
			"min":[
				0,
				0,
				0
			],
			"type":"VEC3"
		},
		{
			"bufferView":10,
			"componentType":5126,
			"count":24,
			"type":"VEC3"
		},
		{
			"bufferView":11,
			"componentType":5126,
			"count":24,
			"type":"VEC2"
		},
		{
			"bufferView":13,
			"componentType":5126,
			"count":54,
			"max":[
				0.5808558464050293,
				0.6899759769439697,
				1.6563948392868042
			],
			"min":[
				-0.6091529726982117,
				-1.0019230842590332,
				-2.3449134826660156
			],
			"type":"VEC3"
		},
		{
			"bufferView":14,
			"componentType":5126,
			"count":54,
			"type":"VEC3"
		},
		{
			"bufferView":15,
			"componentType":5126,
			"count":54,
			"type":"VEC2"
		},
		{
			"bufferView":16,
			"componentType":5123,
			"count":90,
			"type":"SCALAR"
		},
		{
			"bufferView":18,
			"componentType":5126,
			"count":105,
			"max":[
				0.2662765383720398,
				0.6074147820472717,
				0.2393660992383957
			],
			"min":[
				-0.2726932764053345,
				-0.7244169116020203,
				-0.03246690705418587
			],
			"type":"VEC3"
		},
		{
			"bufferView":19,
			"componentType":5126,
			"count":105,
			"type":"VEC3"
		},
		{
			"bufferView":20,
			"componentType":5126,
			"count":105,
			"type":"VEC2"
		},
		{
			"bufferView":21,
			"componentType":5123,
			"count":204,
			"type":"SCALAR"
		},
		{
			"bufferView":23,
			"componentType":5126,
			"count":24,
			"max":[
				1,
				1,
				1
			],
			"min":[
				0,
				0,
				0
			],
			"type":"VEC3"
		},
		{
			"bufferView":24,
			"componentType":5126,
			"count":24,
			"type":"VEC3"
		},
		{
			"bufferView":25,
			"componentType":5126,
			"count":24,
			"type":"VEC2"
		},
		{
			"bufferView":26,
			"componentType":5126,
			"count":192,
			"max":[
				0.25,
				0.25,
				0.5
			],
			"min":[
				-0.25,
				-0.25,
				-0.5
			],
			"type":"VEC3"
		},
		{
			"bufferView":27,
			"componentType":5126,
			"count":192,
			"type":"VEC3"
		},
		{
			"bufferView":28,
			"componentType":5126,
			"count":192,
			"type":"VEC2"
		},
		{
			"bufferView":29,
			"componentType":5123,
			"count":372,
			"type":"SCALAR"
		},
		{
			"bufferView":30,
			"componentType":5126,
			"count":128,
			"max":[
				0.25,
				0.25,
				0.5
			],
			"min":[
				-0.25,
				-0.25,
				-0.5
			],
			"type":"VEC3"
		},
		{
			"bufferView":31,
			"componentType":5126,
			"count":128,
			"type":"VEC3"
		},
		{
			"bufferView":32,
			"componentType":5126,
			"count":128,
			"type":"VEC2"
		},
		{
			"bufferView":33,
			"componentType":5123,
			"count":186,
			"type":"SCALAR"
		},
		{
			"bufferView":34,
			"componentType":5126,
			"count":128,
			"max":[
				0.25,
				0.25,
				0.5
			],
			"min":[
				-0.25,
				-0.25,
				-0.5
			],
			"type":"VEC3"
		},
		{
			"bufferView":35,
			"componentType":5126,
			"count":128,
			"type":"VEC3"
		},
		{
			"bufferView":36,
			"componentType":5126,
			"count":128,
			"type":"VEC2"
		},
		{
			"bufferView":37,
			"componentType":5126,
			"count":105,
			"max":[
				0.2662765383720398,
				0.6074147820472717,
				0.2393660992383957
			],
			"min":[
				-0.2726932764053345,
				-0.7244169116020203,
				-0.03246690705418587
			],
			"type":"VEC3"
		},
		{
			"bufferView":38,
			"componentType":5126,
			"count":105,
			"type":"VEC3"
		},
		{
			"bufferView":39,
			"componentType":5126,
			"count":105,
			"type":"VEC2"
		},
		{
			"bufferView":40,
			"componentType":5126,
			"count":105,
			"max":[
				0,
				2.9802322387695312e-08,
				0.5
			],
			"min":[
				0,
				0,
				0
			],
			"type":"VEC3"
		},
		{
			"bufferView":41,
			"componentType":5126,
			"count":105,
			"type":"VEC3"
		},
		{
			"bufferView":42,
			"componentType":5126,
			"count":54,
			"max":[
				0.5808558464050293,
				0.6899759769439697,
				1.6563948392868042
			],
			"min":[
				-0.6091529726982117,
				-1.0019230842590332,
				-2.3449134826660156
			],
			"type":"VEC3"
		},
		{
			"bufferView":43,
			"componentType":5126,
			"count":54,
			"type":"VEC3"
		},
		{
			"bufferView":44,
			"componentType":5126,
			"count":54,
			"type":"VEC2"
		},
		{
			"bufferView":45,
			"componentType":5126,
			"count":54,
			"max":[
				1.9999998807907104,
				5.960464477539063e-08,
				2
			],
			"min":[
				0,
				0,
				0
			],
			"type":"VEC3"
		},
		{
			"bufferView":46,
			"componentType":5126,
			"count":54,
			"type":"VEC3"
		},
		{
			"bufferView":47,
			"componentType":5126,
			"count":192,
			"max":[
				0.25,
				0.25,
				0.5
			],
			"min":[
				-0.25,
				-0.25,
				-0.5
			],
			"type":"VEC3"
		},
		{
			"bufferView":48,
			"componentType":5126,
			"count":192,
			"type":"VEC3"
		},
		{
			"bufferView":49,
			"componentType":5126,
			"count":192,
			"type":"VEC2"
		},
		{
			"bufferView":50,
			"componentType":5126,
			"count":128,
			"max":[
				0.25,
				0.25,
				0.5
			],
			"min":[
				-0.25,
				-0.25,
				-0.5
			],
			"type":"VEC3"
		},
		{
			"bufferView":51,
			"componentType":5126,
			"count":128,
			"type":"VEC3"
		},
		{
			"bufferView":52,
			"componentType":5126,
			"count":128,
			"type":"VEC2"
		},
		{
			"bufferView":53,
			"componentType":5126,
			"count":24,
			"max":[
				1,
				1,
				1
			],
			"min":[
				0,
				0,
				0
			],
			"type":"VEC3"
		},
		{
			"bufferView":54,
			"componentType":5126,
			"count":24,
			"type":"VEC3"
		},
		{
			"bufferView":55,
			"componentType":5126,
			"count":24,
			"type":"VEC2"
		},
		{
			"bufferView":56,
			"componentType":5126,
			"count":24,
			"max":[
				1,
				1,
				1
			],
			"min":[
				0,
				0,
				0
			],
			"type":"VEC3"
		},
		{
			"bufferView":57,
			"componentType":5126,
			"count":24,
			"type":"VEC3"
		},
		{
			"bufferView":58,
			"componentType":5126,
			"count":24,
			"type":"VEC2"
		},
		{
			"bufferView":59,
			"componentType":5126,
			"count":24,
			"max":[
				1,
				1,
				1
			],
			"min":[
				0,
				0,
				0
			],
			"type":"VEC3"
		},
		{
			"bufferView":60,
			"componentType":5126,
			"count":24,
			"type":"VEC3"
		},
		{
			"bufferView":61,
			"componentType":5126,
			"count":24,
			"type":"VEC2"
		}
	],
	"bufferViews":[
		{
			"buffer":0,
			"byteLength":288,
			"byteOffset":0,
			"target":34962
		},
		{
			"buffer":0,
			"byteLength":288,
			"byteOffset":288,
			"target":34962
		},
		{
			"buffer":0,
			"byteLength":192,
			"byteOffset":576,
			"target":34962
		},
		{
			"buffer":0,
			"byteLength":72,
			"byteOffset":768,
			"target":34963
		},
		{
			"buffer":0,
			"byteLength":10354,
			"byteOffset":840
		},
		{
			"buffer":0,
			"byteLength":288,
			"byteOffset":11196,
			"target":34962
		},
		{
			"buffer":0,
			"byteLength":288,
			"byteOffset":11484,
			"target":34962
		},
		{
			"buffer":0,
			"byteLength":192,
			"byteOffset":11772,
			"target":34962
		},
		{
			"buffer":0,
			"byteLength":10612,
			"byteOffset":11964
		},
		{
			"buffer":0,
			"byteLength":288,
			"byteOffset":22576,
			"target":34962
		},
		{
			"buffer":0,
			"byteLength":288,
			"byteOffset":22864,
			"target":34962
		},
		{
			"buffer":0,
			"byteLength":192,
			"byteOffset":23152,
			"target":34962
		},
		{
			"buffer":0,
			"byteLength":13184,
			"byteOffset":23344
		},
		{
			"buffer":0,
			"byteLength":648,
			"byteOffset":36528,
			"target":34962
		},
		{
			"buffer":0,
			"byteLength":648,
			"byteOffset":37176,
			"target":34962
		},
		{
			"buffer":0,
			"byteLength":432,
			"byteOffset":37824,
			"target":34962
		},
		{
			"buffer":0,
			"byteLength":180,
			"byteOffset":38256,
			"target":34963
		},
		{
			"buffer":0,
			"byteLength":371,
			"byteOffset":38436
		},
		{
			"buffer":0,
			"byteLength":1260,
			"byteOffset":38808,
			"target":34962
		},
		{
			"buffer":0,
			"byteLength":1260,
			"byteOffset":40068,
			"target":34962
		},
		{
			"buffer":0,
			"byteLength":840,
			"byteOffset":41328,
			"target":34962
		},
		{
			"buffer":0,
			"byteLength":408,
			"byteOffset":42168,
			"target":34963
		},
		{
			"buffer":0,
			"byteLength":371,
			"byteOffset":42576
		},
		{
			"buffer":0,
			"byteLength":288,
			"byteOffset":42948,
			"target":34962
		},
		{
			"buffer":0,
			"byteLength":288,
			"byteOffset":43236,
			"target":34962
		},
		{
			"buffer":0,
			"byteLength":192,
			"byteOffset":43524,
			"target":34962
		},
		{
			"buffer":0,
			"byteLength":2304,
			"byteOffset":43716,
			"target":34962
		},
		{
			"buffer":0,
			"byteLength":2304,
			"byteOffset":46020,
			"target":34962
		},
		{
			"buffer":0,
			"byteLength":1536,
			"byteOffset":48324,
			"target":34962
		},
		{
			"buffer":0,
			"byteLength":744,
			"byteOffset":49860,
			"target":34963
		},
		{
			"buffer":0,
			"byteLength":1536,
			"byteOffset":50604,
			"target":34962
		},
		{
			"buffer":0,
			"byteLength":1536,
			"byteOffset":52140,
			"target":34962
		},
		{
			"buffer":0,
			"byteLength":1024,
			"byteOffset":53676,
			"target":34962
		},
		{
			"buffer":0,
			"byteLength":372,
			"byteOffset":54700,
			"target":34963
		},
		{
			"buffer":0,
			"byteLength":1536,
			"byteOffset":55072,
			"target":34962
		},
		{
			"buffer":0,
			"byteLength":1536,
			"byteOffset":56608,
			"target":34962
		},
		{
			"buffer":0,
			"byteLength":1024,
			"byteOffset":58144,
			"target":34962
		},
		{
			"buffer":0,
			"byteLength":1260,
			"byteOffset":59168,
			"target":34962
		},
		{
			"buffer":0,
			"byteLength":1260,
			"byteOffset":60428,
			"target":34962
		},
		{
			"buffer":0,
			"byteLength":840,
			"byteOffset":61688,
			"target":34962
		},
		{
			"buffer":0,
			"byteLength":1260,
			"byteOffset":62528,
			"target":34962
		},
		{
			"buffer":0,
			"byteLength":1260,
			"byteOffset":63788,
			"target":34962
		},
		{
			"buffer":0,
			"byteLength":648,
			"byteOffset":65048,
			"target":34962
		},
		{
			"buffer":0,
			"byteLength":648,
			"byteOffset":65696,
			"target":34962
		},
		{
			"buffer":0,
			"byteLength":432,
			"byteOffset":66344,
			"target":34962
		},
		{
			"buffer":0,
			"byteLength":648,
			"byteOffset":66776,
			"target":34962
		},
		{
			"buffer":0,
			"byteLength":648,
			"byteOffset":67424,
			"target":34962
		},
		{
			"buffer":0,
			"byteLength":2304,
			"byteOffset":68072,
			"target":34962
		},
		{
			"buffer":0,
			"byteLength":2304,
			"byteOffset":70376,
			"target":34962
		},
		{
			"buffer":0,
			"byteLength":1536,
			"byteOffset":72680,
			"target":34962
		},
		{
			"buffer":0,
			"byteLength":1536,
			"byteOffset":74216,
			"target":34962
		},
		{
			"buffer":0,
			"byteLength":1536,
			"byteOffset":75752,
			"target":34962
		},
		{
			"buffer":0,
			"byteLength":1024,
			"byteOffset":77288,
			"target":34962
		},
		{
			"buffer":0,
			"byteLength":288,
			"byteOffset":78312,
			"target":34962
		},
		{
			"buffer":0,
			"byteLength":288,
			"byteOffset":78600,
			"target":34962
		},
		{
			"buffer":0,
			"byteLength":192,
			"byteOffset":78888,
			"target":34962
		},
		{
			"buffer":0,
			"byteLength":288,
			"byteOffset":79080,
			"target":34962
		},
		{
			"buffer":0,
			"byteLength":288,
			"byteOffset":79368,
			"target":34962
		},
		{
			"buffer":0,
			"byteLength":192,
			"byteOffset":79656,
			"target":34962
		},
		{
			"buffer":0,
			"byteLength":288,
			"byteOffset":79848,
			"target":34962
		},
		{
			"buffer":0,
			"byteLength":288,
			"byteOffset":80136,
			"target":34962
		},
		{
			"buffer":0,
			"byteLength":192,
			"byteOffset":80424,
			"target":34962
		}
	],
	"samplers":[
		{
			"magFilter":9728,
			"minFilter":9984
		}
	],
	"buffers":[
		{
			"byteLength":80616,
			"uri":"data:application/octet-stream;base64,"
		}
	]
}
