{
    "asset" : {
        "generator" : "Khronos glTF Blender I/O v3.4.50",
        "version" : "2.0"
    },
    "extensionsUsed" : [
        "KHR_materials_specular",
        "KHR_materials_ior"
    ],
    "scene" : 0,
    "scenes" : [
        {
            "name" : "Scene",
            "nodes" : [
                0
            ]
        }
    ],
    "nodes" : [
        {
            "mesh" : 0,
            "name" : "unit",
            "rotation" : [
                0.7071068286895752,
                0,
                0,
                0.7071068286895752
            ]
        }
    ],
    "materials" : [
        {
            "doubleSided" : true,
            "extensions" : {
                "KHR_materials_specular" : {
                    "specularColorFactor" : [
                        0,
                        0,
                        0
                    ]
                },
                "KHR_materials_ior" : {
                    "ior" : 1.4500000476837158
                }
            },
            "name" : "default",
            "pbrMetallicRoughness" : {
                "baseColorTexture" : {
                    "index" : 0
                },
                "metallicFactor" : 0
            }
        }
    ],
    "meshes" : [
        {
            "extras" : {
                "targetNames" : [
                    "shoot",
                    "run_1",
                    "run_2",
                    "run_3",
                    "run_4"
                ]
            },
            "name" : "idle",
            "primitives" : [
                {
                    "attributes" : {
                        "POSITION" : 0,
                        "TEXCOORD_0" : 1,
                        "NORMAL" : 2
                    },
                    "indices" : 3,
                    "material" : 0,
                    "targets" : [
                        {
                            "POSITION" : 4,
                            "NORMAL" : 5
                        },
                        {
                            "POSITION" : 6,
                            "NORMAL" : 7
                        },
                        {
                            "POSITION" : 8,
                            "NORMAL" : 9
                        },
                        {
                            "POSITION" : 10,
                            "NORMAL" : 11
                        },
                        {
                            "POSITION" : 12,
                            "NORMAL" : 13
                        }
                    ]
                }
            ],
            "weights" : [
                0,
                0,
                0,
                0,
                0
            ]
        }
    ],
    "textures" : [
        {
            "sampler" : 0,
            "source" : 0
        }
    ],
    "images" : [
        {
            "bufferView" : 4,
            "mimeType" : "image/png",
            "name" : "unit_texture"
        }
    ],
    "accessors" : [
        {
            "bufferView" : 0,
            "componentType" : 5126,
            "count" : 105,
            "max" : [
                0.2662765383720398,
                0.2393660992383957,
                0.7244169116020203
            ],
            "min" : [
                -0.2726932764053345,
                -0.03246690705418587,
                -0.6074147820472717
            ],
            "type" : "VEC3"
        },
        {
            "bufferView" : 1,
            "componentType" : 5126,
            "count" : 105,
            "type" : "VEC2"
        },
        {
            "bufferView" : 2,
            "componentType" : 5126,
            "count" : 105,
            "type" : "VEC3"
        },
        {
            "bufferView" : 3,
            "componentType" : 5123,
            "count" : 204,
            "type" : "SCALAR"
        },
        {
            "bufferView" : 5,
            "componentType" : 5126,
            "count" : 105,
            "max" : [
                0.12572617828845978,
                0.47177666425704956,
                0.024112507700920105
            ],
            "min" : [
                -0.5507612824440002,
                -0.00613788515329361,
                -0.4929465353488922
            ],
            "type" : "VEC3"
        },
        {
            "bufferView" : 6,
            "componentType" : 5126,
            "count" : 105,
            "type" : "VEC3"
        },
        {
            "bufferView" : 7,
            "componentType" : 5126,
            "count" : 105,
            "max" : [
                0.04406021535396576,
                0.5323514938354492,
                -0.00044220685958862305
            ],
            "min" : [
                -0.17738981544971466,
                -0.454377144575119,
                -0.4218871593475342
            ],
            "type" : "VEC3"
        },
        {
            "bufferView" : 8,
            "componentType" : 5126,
            "count" : 105,
            "type" : "VEC3"
        },
        {
            "bufferView" : 9,
            "componentType" : 5126,
            "count" : 105,
            "max" : [
                0.04960744082927704,
                0.17540252208709717,
                0.05902308225631714
            ],
            "min" : [
                -0.10763496160507202,
                -0.29841622710227966,
                -0.23803436756134033
            ],
            "type" : "VEC3"
        },
        {
            "bufferView" : 10,
            "componentType" : 5126,
            "count" : 105,
            "type" : "VEC3"
        },
        {
            "bufferView" : 11,
            "componentType" : 5126,
            "count" : 105,
            "max" : [
                0.10849399864673615,
                0.5350453853607178,
                0.0007698535919189453
            ],
            "min" : [
                -0.05043797194957733,
                -0.45365607738494873,
                -0.42001643776893616
            ],
            "type" : "VEC3"
        },
        {
            "bufferView" : 12,
            "componentType" : 5126,
            "count" : 105,
            "type" : "VEC3"
        },
        {
            "bufferView" : 13,
            "componentType" : 5126,
            "count" : 105,
            "max" : [
                0.11089947819709778,
                0.16719625890254974,
                0.059523046016693115
            ],
            "min" : [
                -0.04314938187599182,
                -0.2939317226409912,
                -0.241286963224411
            ],
            "type" : "VEC3"
        },
        {
            "bufferView" : 14,
            "componentType" : 5126,
            "count" : 105,
            "type" : "VEC3"
        }
    ],
    "bufferViews" : [
        {
            "buffer" : 0,
            "byteLength" : 1260,
            "byteOffset" : 0,
            "target" : 34962
        },
        {
            "buffer" : 0,
            "byteLength" : 840,
            "byteOffset" : 1260,
            "target" : 34962
        },
        {
            "buffer" : 0,
            "byteLength" : 1260,
            "byteOffset" : 2100,
            "target" : 34962
        },
        {
            "buffer" : 0,
            "byteLength" : 408,
            "byteOffset" : 3360,
            "target" : 34963
        },
        {
            "buffer" : 0,
            "byteLength" : 1235,
            "byteOffset" : 3768
        },
        {
            "buffer" : 0,
            "byteLength" : 1260,
            "byteOffset" : 5004,
            "target" : 34962
        },
        {
            "buffer" : 0,
            "byteLength" : 1260,
            "byteOffset" : 6264,
            "target" : 34962
        },
        {
            "buffer" : 0,
            "byteLength" : 1260,
            "byteOffset" : 7524,
            "target" : 34962
        },
        {
            "buffer" : 0,
            "byteLength" : 1260,
            "byteOffset" : 8784,
            "target" : 34962
        },
        {
            "buffer" : 0,
            "byteLength" : 1260,
            "byteOffset" : 10044,
            "target" : 34962
        },
        {
            "buffer" : 0,
            "byteLength" : 1260,
            "byteOffset" : 11304,
            "target" : 34962
        },
        {
            "buffer" : 0,
            "byteLength" : 1260,
            "byteOffset" : 12564,
            "target" : 34962
        },
        {
            "buffer" : 0,
            "byteLength" : 1260,
            "byteOffset" : 13824,
            "target" : 34962
        },
        {
            "buffer" : 0,
            "byteLength" : 1260,
            "byteOffset" : 15084,
            "target" : 34962
        },
        {
            "buffer" : 0,
            "byteLength" : 1260,
            "byteOffset" : 16344,
            "target" : 34962
        }
    ],
    "samplers" : [
        {
            "magFilter" : 9728,
            "minFilter" : 9984
        }
    ],
    "buffers" : [
        {
            "byteLength" : 17604,
            "uri" : "data:application/octet-stream;base64,"
        }
    ]
}
